<?xml version="1.0" standalone="no"?>
<!DOCTYPE svg PUBLIC "-//W3C//DTD SVG 20010904//EN"
 "http://www.w3.org/TR/2001/REC-SVG-20010904/DTD/svg10.dtd">
<svg version="1.0" xmlns="http://www.w3.org/2000/svg"
 width="1080.000000pt" height="1080.000000pt" viewBox="0 0 1080.000000 1080.000000"
 preserveAspectRatio="xMidYMid meet">

<g transform="translate(0.000000,1080.000000) scale(0.100000,-0.100000)"
fill="#000000" stroke="none">
<path d="M0 5400 l0 -5400 5400 0 5400 0 0 5400 0 5400 -5400 0 -5400 0 0
-5400z m5272 674 c24 -9 58 -23 77 -32 33 -16 47 -27 137 -106 46 -40 152 -99
164 -91 5 3 12 0 16 -6 4 -8 23 -9 58 -4 75 11 108 15 136 18 14 2 30 6 35 9
19 11 70 18 162 23 89 5 96 4 155 -26 35 -17 84 -47 110 -67 49 -37 53 -38
128 -51 25 -5 57 -13 73 -19 15 -6 27 -9 27 -7 0 28 278 -174 330 -239 50 -62
104 -166 115 -221 21 -98 24 -142 30 -440 3 -137 9 -250 13 -250 32 1 129 18
137 24 15 11 84 29 135 36 25 3 59 8 75 10 42 6 420 16 595 15 131 0 152 -3
215 -26 56 -21 81 -38 126 -85 70 -73 89 -128 91 -261 1 -88 -5 -112 -34 -150
-45 -58 -147 -157 -180 -174 -18 -9 -36 -21 -39 -26 -3 -5 -12 -11 -20 -12
-15 -3 -25 -7 -119 -43 -76 -30 -170 -51 -255 -58 -33 -2 -96 -8 -140 -11 -44
-3 -100 -8 -125 -10 -25 -2 -74 -6 -110 -8 -76 -5 -162 -16 -172 -23 -8 -4
-26 -8 -83 -19 -16 -3 -53 -20 -81 -39 -28 -19 -62 -37 -76 -40 -26 -7 -35
-25 -44 -90 -2 -16 -8 -39 -13 -50 -6 -11 -22 -49 -37 -85 -14 -36 -37 -88
-50 -116 -13 -28 -24 -54 -24 -58 0 -16 -67 -94 -90 -104 -89 -39 -101 -41
-222 -44 -66 -2 -102 2 -110 10 -7 7 -18 12 -26 12 -24 0 -122 71 -137 99 -18
36 -36 173 -36 272 l0 80 -35 -3 c-33 -2 -34 -3 -28 -35 4 -19 2 -39 -5 -47
-12 -14 -32 -145 -25 -158 3 -4 0 -9 -6 -13 -5 -3 -10 -15 -10 -25 0 -28 -29
-71 -95 -146 -51 -56 -66 -67 -124 -85 -104 -33 -291 -25 -339 13 -7 6 -15 8
-19 5 -16 -17 -142 102 -174 165 -10 20 -21 61 -25 90 -3 29 -9 67 -14 83 -5
17 -11 65 -14 108 -3 43 -10 86 -16 95 -5 9 -10 12 -10 5 0 -7 -6 -10 -12 -8
-10 4 -13 -39 -14 -193 -2 -218 -6 -235 -75 -323 -47 -60 -85 -72 -203 -66
-128 8 -130 8 -241 57 -22 10 -49 20 -61 24 -12 3 -26 18 -32 31 -6 14 -18 25
-25 25 -24 0 -112 111 -151 190 -21 41 -42 81 -48 87 -6 7 -8 19 -5 27 8 20
-56 45 -67 27 -3 -4 -52 -5 -110 -4 -58 1 -107 -1 -107 -5 -1 -4 -3 -50 -5
-104 -3 -109 -14 -138 -71 -188 -21 -19 -37 -39 -35 -46 3 -14 -47 -55 -76
-62 -9 -3 -66 -6 -127 -7 -229 -4 -338 51 -465 235 -24 36 -55 76 -67 90 -13
14 -23 28 -23 32 0 4 -13 30 -30 58 -16 27 -27 50 -24 50 4 0 2 6 -4 13 -6 7
-20 39 -32 72 -12 33 -30 78 -40 100 -23 51 -41 116 -34 126 2 4 0 10 -6 14
-5 3 -14 25 -20 48 -6 23 -17 56 -25 72 -33 73 -68 180 -86 268 -7 32 -16 60
-21 63 -4 3 -8 16 -8 28 0 13 -6 39 -13 57 -14 35 -16 245 -3 304 10 44 29 99
38 110 4 5 8 17 8 27 0 10 16 35 35 57 19 21 35 43 35 49 0 20 116 129 180
169 51 31 138 73 154 73 8 0 34 24 57 53 65 78 119 131 166 161 40 27 43 27
201 27 131 -1 162 1 172 14 7 8 18 15 24 15 6 0 31 23 56 51 25 28 53 59 62
70 9 10 26 36 38 58 24 49 125 153 169 176 41 20 136 21 211 0 96 -26 220 -15
250 23 9 11 26 24 38 31 12 6 48 33 80 59 31 25 71 54 88 62 17 9 44 28 60 43
27 25 34 27 126 27 65 0 112 -5 140 -16z"/>
<path d="M4975 5929 c-55 -39 -111 -81 -125 -93 -14 -13 -47 -38 -75 -56 -47
-32 -56 -34 -155 -38 -65 -2 -121 1 -145 8 -22 6 -65 14 -96 17 l-57 4 -58
-59 c-33 -32 -75 -85 -94 -118 -19 -32 -69 -93 -112 -135 -91 -93 -103 -96
-300 -92 l-136 2 -51 -40 c-28 -22 -51 -44 -51 -47 0 -12 -104 -118 -145 -148
-57 -41 -82 -54 -105 -54 -22 0 -64 -23 -91 -49 -8 -9 -28 -27 -45 -41 -16
-14 -40 -41 -54 -60 -13 -19 -29 -39 -36 -45 -44 -38 -74 -156 -77 -300 -2
-81 2 -113 20 -170 13 -38 30 -99 37 -135 16 -69 57 -194 80 -238 18 -36 56
-153 56 -173 0 -8 9 -33 19 -55 11 -22 29 -69 41 -104 12 -36 26 -69 31 -74 5
-6 9 -18 9 -28 0 -10 4 -18 8 -18 4 0 13 -12 20 -27 7 -16 18 -37 25 -48 29
-46 52 -80 58 -85 3 -3 18 -23 32 -45 37 -58 74 -101 81 -94 8 8 -13 75 -46
145 -16 33 -18 109 -4 158 18 62 53 76 184 74 104 -1 108 -2 153 -35 40 -28
129 -131 129 -148 0 -3 13 -33 29 -66 17 -32 28 -59 25 -59 -2 0 3 -11 12 -26
28 -41 38 -14 36 93 -1 67 -8 113 -21 148 -20 53 -56 123 -72 139 -5 6 -9 20
-9 33 0 13 -4 23 -9 23 -23 0 -141 203 -127 217 2 3 -2 20 -10 39 -21 50 -25
105 -27 334 -1 192 0 209 22 267 13 34 38 78 57 98 19 21 34 41 34 46 0 5 7 9
16 9 11 0 14 6 11 18 -3 9 -16 51 -27 92 -12 41 -25 79 -29 85 -16 23 -29 84
-30 144 0 35 -3 66 -6 69 -8 8 36 62 50 62 29 0 47 -46 47 -122 0 -40 5 -82
12 -93 15 -24 51 -127 62 -175 4 -19 8 -37 9 -40 1 -3 11 -36 23 -75 12 -38
22 -74 23 -80 1 -5 26 -57 55 -114 30 -57 54 -109 54 -117 0 -16 32 -88 106
-239 30 -61 54 -118 54 -126 0 -8 9 -42 21 -74 12 -33 23 -71 25 -85 3 -14 17
-56 33 -95 16 -38 41 -101 56 -140 44 -116 153 -327 190 -369 39 -44 52 -45
30 -2 -8 16 -15 43 -15 60 0 18 -7 58 -15 90 -9 33 -15 89 -13 125 2 61 5 69
35 98 55 53 139 85 214 82 91 -4 140 -38 244 -173 28 -36 53 -65 57 -65 3 -1
5 38 3 86 -3 64 -8 93 -22 112 -21 28 -63 115 -68 140 -2 9 -9 32 -16 51 -29
84 -38 117 -43 140 -2 14 -10 39 -16 55 -7 17 -13 37 -14 45 -1 8 -5 22 -8 30
-3 8 -18 56 -34 105 -15 50 -43 124 -62 165 -19 41 -36 86 -39 99 -2 14 -6 28
-9 32 -2 4 -16 51 -30 105 -24 93 -29 120 -39 219 -19 181 -18 178 -75 347
-55 161 -56 166 -37 192 32 44 77 -9 112 -129 9 -33 23 -71 30 -85 18 -35 52
-200 59 -288 8 -101 19 -169 36 -217 23 -69 37 -112 50 -165 11 -41 26 -78 67
-167 8 -17 16 -37 17 -45 2 -12 16 -60 68 -233 11 -38 24 -79 28 -90 5 -11 14
-41 20 -68 7 -26 17 -50 21 -53 5 -3 9 -18 9 -35 0 -16 3 -29 8 -29 8 0 46
-71 56 -102 5 -18 26 -25 26 -10 0 5 -6 30 -14 55 -7 25 -11 48 -8 51 2 3 0
12 -7 20 -12 14 -17 31 -26 101 -4 22 -13 65 -21 95 -34 120 -46 166 -49 185
-8 55 -49 239 -71 324 -13 52 -22 101 -20 108 3 7 1 15 -4 18 -6 4 -10 16 -10
28 0 12 -9 47 -20 77 -20 53 -30 77 -79 181 -11 25 -21 53 -21 61 0 8 -5 19
-12 26 -7 7 -9 12 -5 12 4 0 -1 19 -11 43 -14 35 -17 73 -16 242 1 211 6 262
30 309 7 16 14 33 14 38 0 13 42 54 63 61 12 5 21 0 28 -17 9 -18 5 -41 -19
-111 -28 -84 -30 -99 -31 -260 l-2 -170 37 -105 c56 -159 59 -167 71 -181 6
-8 18 -37 26 -66 9 -28 22 -62 30 -75 8 -12 17 -45 21 -73 6 -45 16 -96 61
-290 8 -33 16 -76 20 -95 13 -80 28 -146 35 -155 9 -12 38 -128 45 -182 8 -53
26 -136 34 -148 3 -5 6 -16 7 -23 3 -14 33 -120 42 -142 6 -16 7 -20 16 -95 6
-48 19 -145 21 -155 0 -3 4 -11 9 -18 4 -7 6 -16 3 -18 -9 -9 13 -84 32 -106
10 -13 30 -36 44 -53 36 -42 42 -27 11 30 -14 27 -27 67 -29 89 -2 23 -4 41
-5 41 -5 0 -13 85 -14 158 -1 81 1 90 22 107 12 10 22 21 22 25 0 12 64 65 99
81 54 26 182 30 239 9 62 -24 118 -82 132 -137 23 -90 35 -122 49 -126 8 -3
11 0 7 6 -4 6 1 20 10 30 12 15 15 40 14 128 -2 161 -2 316 1 344 2 31 -20
148 -33 174 -5 10 -12 39 -14 64 -3 26 -11 60 -20 77 -23 45 -45 159 -50 255
-2 47 -12 126 -21 175 -21 120 -24 148 -27 300 -1 72 -4 135 -7 140 -3 6 -4
21 -3 35 1 13 -5 43 -13 65 -9 22 -16 63 -17 91 -3 75 -56 175 -159 297 -17
20 -37 37 -44 37 -7 0 -13 8 -13 18 0 11 -25 30 -75 56 -40 21 -87 51 -103 65
-63 58 -141 111 -181 126 -24 8 -73 15 -110 15 -66 0 -67 -1 -166 -71z"/>
<path d="M5935 5775 c-16 -8 -37 -12 -46 -9 -9 2 -22 -2 -29 -11 -8 -10 -30
-15 -61 -15 -51 0 -56 -3 -39 -23 93 -114 138 -202 151 -294 5 -36 13 -72 18
-82 9 -16 24 -93 30 -154 1 -5 5 -6 10 -2 8 5 107 -43 138 -67 21 -16 53 -88
57 -126 2 -20 11 -64 20 -97 8 -33 18 -78 21 -100 20 -134 27 -170 33 -179 4
-6 7 -128 8 -271 1 -191 6 -282 17 -345 12 -62 16 -151 17 -330 0 -135 1 -253
1 -264 0 -34 14 -5 15 32 1 51 15 165 20 174 2 4 7 26 10 50 4 24 11 49 16 56
6 6 8 12 5 12 -16 0 65 71 101 88 48 23 134 30 172 14 24 -10 120 -112 120
-129 0 -4 7 -21 16 -38 9 -16 24 -61 34 -100 l18 -70 12 43 c7 23 16 42 20 42
3 0 6 10 7 23 0 12 5 63 12 112 6 50 13 115 15 145 3 30 7 73 10 95 3 22 6
108 7 190 0 88 6 175 14 210 28 119 31 164 29 390 -3 278 -10 414 -26 469 -6
22 -12 46 -13 51 -3 22 -35 82 -49 95 -9 7 -16 18 -16 24 -1 17 -50 66 -115
116 -33 24 -67 52 -75 61 -20 22 -103 67 -132 71 -13 2 -27 6 -33 10 -5 3 -33
9 -62 13 -32 4 -74 20 -109 41 -31 19 -59 34 -63 34 -3 0 -20 12 -36 28 -28
26 -35 27 -135 29 -73 2 -114 -2 -135 -12z"/>
<path d="M5961 4983 c2 -60 7 -121 11 -138 5 -16 11 -50 13 -75 3 -25 9 -76
15 -115 5 -38 12 -97 14 -130 2 -33 5 -60 6 -60 1 0 3 -9 5 -20 1 -11 14 -51
29 -90 14 -38 26 -84 26 -102 0 -17 5 -35 10 -38 6 -3 10 -21 10 -40 0 -19 4
-36 8 -39 5 -3 10 -60 11 -128 1 -68 3 -168 4 -224 l2 -100 30 6 30 6 -1 135
c-1 95 -5 142 -15 160 -11 19 -14 87 -15 314 -1 184 -6 300 -13 318 -6 15 -8
27 -6 27 2 0 0 12 -5 26 -6 15 -13 52 -15 83 -3 30 -9 69 -15 86 -5 16 -12 44
-15 60 -2 17 -8 41 -11 55 -3 14 -8 37 -11 52 -5 27 -32 50 -79 68 l-26 10 3
-107z"/>
<path d="M3882 4678 c-7 -7 -12 -16 -12 -22 0 -5 -6 -17 -13 -25 -26 -30 -38
-102 -38 -224 0 -67 0 -124 1 -127 0 -3 2 -51 4 -108 2 -61 7 -107 14 -114 7
-7 12 -23 12 -37 0 -26 60 -143 90 -176 11 -11 44 -68 74 -125 l54 -105 121
-3 c104 -2 122 0 128 13 3 9 1 26 -5 38 -42 84 -102 258 -102 296 0 16 -4 32
-9 36 -5 3 -17 30 -26 61 -9 30 -25 71 -37 92 -25 43 -58 110 -82 167 -10 22
-22 48 -27 57 -5 10 -9 25 -9 33 0 19 -47 122 -59 129 -4 3 -14 24 -21 48 -26
79 -45 109 -58 96z"/>
<path d="M7998 4565 c-3 -3 -137 -7 -299 -10 -162 -3 -310 -10 -329 -15 -19
-5 -50 -10 -68 -12 -19 -1 -36 -6 -38 -10 -3 -4 -14 -8 -24 -8 -10 0 -31 -5
-47 -12 -15 -6 -30 -12 -33 -13 -3 -1 -33 -5 -68 -10 -69 -8 -74 -13 -79 -65
-2 -19 -10 -57 -18 -85 -9 -32 -13 -96 -12 -180 0 -71 -5 -175 -12 -231 -7
-55 -11 -112 -9 -127 l3 -26 55 34 c39 24 84 39 155 54 55 11 109 20 120 21
11 0 58 4 105 9 47 5 132 12 190 15 180 10 343 36 356 57 3 5 21 9 40 9 19 0
34 4 34 9 0 4 20 14 45 21 25 7 45 15 45 19 0 3 12 12 28 19 30 13 112 88 112
103 0 5 6 9 13 9 6 0 22 15 34 33 33 49 32 184 -3 247 -25 46 -80 99 -109 106
-17 4 -39 13 -50 19 -11 7 -42 13 -70 14 -27 2 -53 5 -56 7 -3 2 -8 1 -11 -1z"/>
<path d="M6509 3743 c-6 -7 -17 -13 -23 -13 -20 0 -56 -45 -62 -75 -3 -16 -7
-33 -10 -37 -13 -21 -29 -173 -29 -278 l0 -114 40 -9 c58 -13 201 0 237 21 49
29 70 72 63 134 -3 29 -8 78 -11 108 -8 85 -50 185 -99 236 -33 35 -88 49
-106 27z"/>
<path d="M5679 3686 c-2 -3 -16 -7 -29 -9 -102 -17 -151 -106 -119 -220 7 -23
13 -60 13 -82 1 -23 10 -59 21 -80 10 -22 19 -60 19 -85 1 -54 10 -58 137 -59
104 -1 125 8 197 84 l53 56 -20 42 c-29 61 -91 250 -85 259 9 14 -37 68 -69
82 -31 12 -109 20 -118 12z"/>
<path d="M4766 3661 c-3 -5 -17 -12 -32 -15 -50 -13 -65 -37 -58 -97 3 -30 8
-58 11 -62 3 -4 7 -36 10 -70 3 -34 13 -87 23 -117 11 -30 20 -68 22 -84 3
-27 9 -32 63 -48 60 -19 200 -27 240 -15 11 4 35 29 53 56 35 55 42 108 17
151 -7 14 -21 39 -29 55 -35 67 -166 219 -208 241 -30 16 -104 19 -112 5z"/>
<path d="M3521 3562 c-10 -22 -5 -96 9 -122 6 -12 18 -47 26 -78 8 -31 18 -64
21 -72 4 -8 7 -28 8 -44 0 -28 3 -30 60 -40 33 -6 98 -11 145 -11 81 0 85 1
99 27 15 26 14 31 -17 93 -17 36 -32 72 -32 80 0 8 -5 15 -12 15 -6 0 -9 3 -5
6 8 9 -43 81 -87 124 -36 34 -39 35 -122 36 -69 2 -86 -1 -93 -14z"/>
<path d="M6290 3329 c0 -5 5 -7 10 -4 6 3 10 8 10 11 0 2 -4 4 -10 4 -5 0 -10
-5 -10 -11z"/>
</g>
</svg>
